# xmcd
#
# Track frame offsets:
# 150
# 16150
# 34497
#
# Disc length: 753 seconds
#
#
# Revision: 0
# Processed by: cddbd v1.5.1PL0 Copyright (c) Steve Scherf et al.
# Submitted via: FreeRIP 2.91 
#
DISCID=1c02ef03
DTITLE=Granada - Time to pass
DYEAR=2002
DGENRE=Folk/Rock
TTITLE0=Time to pass
TTITLE1=Wishing well
TTITLE2=Moments
EXTD=
EXTT0=
EXTT1=
EXTT2=
PLAYORDER=
